<?xml version="1.0" encoding="utf-8"?>
<!-- Generator: Adobe Illustrator 21.0.2, SVG Export Plug-In . SVG Version: 6.00 Build 0)  -->
<svg version="1.1" id="Layer_1" xmlns="http://www.w3.org/2000/svg" xmlns:xlink="http://www.w3.org/1999/xlink" x="0px" y="0px"
	 viewBox="0 0 2118.5 578" enable-background="new 0 0 2118.5 578" xml:space="preserve">
<linearGradient id="SVGID_1_" gradientUnits="userSpaceOnUse" x1="42.0523" y1="535.9478" x2="535.9478" y2="42.0523">
	<stop  offset="0" style="stop-color:#387A36"/>
	<stop  offset="0.2586" style="stop-color:#2A9926"/>
	<stop  offset="0.7584" style="stop-color:#12D10B"/>
	<stop  offset="1" style="stop-color:#08E700"/>
</linearGradient>
<path fill="url(#SVGID_1_)" d="M434.8,578H143.2C64.4,578,0,513.6,0,434.8V143.2C0,64.4,64.4,0,143.2,0h291.7
	C513.6,0,578,64.4,578,143.2v291.7C578,513.6,513.6,578,434.8,578z"/>
<text transform="matrix(0.8434 0 0 1 598 426.5632)"><tspan x="0" y="0" font-family="'ACaslonPro-Regular'" font-size="368.9591px" letter-spacing="11.9">F</tspan><tspan x="233.5" y="0" font-family="'ACaslonPro-Regular'" font-size="368.9591px">lap</tspan><tspan x="675.2" y="0" font-family="'ACaslonPro-Regular'" font-size="368.9591px" letter-spacing="-3.6">p</tspan><tspan x="860.4" y="0" font-family="'ACaslonPro-Regular'" font-size="368.9591px">y</tspan><tspan x="1021.3" y="0" font-family="'ACaslonPro-Regular'" font-size="368.9591px" letter-spacing="3.6">L</tspan><tspan x="1269.2" y="0" font-family="'ACaslonPro-Regular'" font-size="368.9591px">ang</tspan></text>
<text transform="matrix(1.2432 0 0 1 36.7842 376.656)" fill="#FFFFFF" stroke="#000000" stroke-width="2" stroke-miterlimit="10" font-family="'ACaslonPro-Semibold'" font-size="390px">F</text>
<text transform="matrix(1.1204 0 0 1 259 466.5632)" fill="#FFFFFF" stroke="#000000" stroke-width="2" stroke-miterlimit="10" font-family="'ACaslonPro-Semibold'" font-size="360px">L</text>
</svg>
